<svg xmlns="http://www.w3.org/2000/svg" xmlns:xlink="http://www.w3.org/1999/xlink" width="1000" zoomAndPan="magnify" viewBox="0 0 375 374.999991" height="1" preserveAspectRatio="xMidYMid meet" version="1.0"><defs><g/><clipPath id="bcd6b29e53"><path d="M 308.925781 161.398438 L 322.320312 161.398438 L 322.320312 173.152344 L 308.925781 173.152344 Z M 308.925781 161.398438 " clip-rule="nonzero"/></clipPath><clipPath id="3025aba8a6"><path d="M 309.453125 163.3125 C 308.371094 165.101562 309.132812 166.839844 310.09375 167.765625 L 315.710938 173.152344 L 321.207031 167.78125 C 322.097656 166.789062 322.441406 165.738281 322.25 164.5625 C 321.988281 162.941406 320.652344 161.683594 319 161.503906 C 317.988281 161.394531 317.007812 161.679688 316.246094 162.316406 C 316.039062 162.484375 315.855469 162.675781 315.695312 162.882812 C 315.503906 162.648438 315.28125 162.433594 315.03125 162.242188 C 314.152344 161.574219 313.035156 161.308594 311.960938 161.515625 C 310.941406 161.710938 310.03125 162.367188 309.453125 163.3125 Z M 309.453125 163.3125 " clip-rule="nonzero"/></clipPath></defs><g clip-path="url(#bcd6b29e53)"><g clip-path="url(#3025aba8a6)"><path fill="#32620e" d="M 308.925781 161.445312 L 322.320312 161.445312 L 322.320312 173.152344 L 308.925781 173.152344 Z M 308.925781 161.445312 " fill-opacity="1" fill-rule="nonzero"/></g></g><g fill="#000000" fill-opacity="1"><g transform="translate(36.796232, 170.959292)"><g><path d="M 26.71875 -21.859375 C 25.863281 -23.648438 24.625 -25.039062 23 -26.03125 C 21.382812 -27.019531 19.503906 -27.515625 17.359375 -27.515625 C 15.203125 -27.515625 13.265625 -27.019531 11.546875 -26.03125 C 9.828125 -25.039062 8.472656 -23.625 7.484375 -21.78125 C 6.492188 -19.945312 6 -17.820312 6 -15.40625 C 6 -13 6.492188 -10.878906 7.484375 -9.046875 C 8.472656 -7.222656 9.828125 -5.816406 11.546875 -4.828125 C 13.265625 -3.847656 15.203125 -3.359375 17.359375 -3.359375 C 20.359375 -3.359375 22.828125 -4.253906 24.765625 -6.046875 C 26.710938 -7.847656 27.847656 -10.273438 28.171875 -13.328125 L 15.890625 -13.328125 L 15.890625 -16.609375 L 32.453125 -16.609375 L 32.453125 -13.515625 C 32.222656 -10.984375 31.429688 -8.664062 30.078125 -6.5625 C 28.722656 -4.457031 26.941406 -2.789062 24.734375 -1.5625 C 22.523438 -0.34375 20.066406 0.265625 17.359375 0.265625 C 14.492188 0.265625 11.882812 -0.398438 9.53125 -1.734375 C 7.175781 -3.078125 5.316406 -4.941406 3.953125 -7.328125 C 2.585938 -9.710938 1.90625 -12.40625 1.90625 -15.40625 C 1.90625 -18.414062 2.585938 -21.117188 3.953125 -23.515625 C 5.316406 -25.910156 7.175781 -27.773438 9.53125 -29.109375 C 11.882812 -30.453125 14.492188 -31.125 17.359375 -31.125 C 20.617188 -31.125 23.507812 -30.3125 26.03125 -28.6875 C 28.550781 -27.070312 30.382812 -24.796875 31.53125 -21.859375 Z M 26.71875 -21.859375 "/></g></g></g><g fill="#000000" fill-opacity="1"><g transform="translate(68.718586, 170.959292)"><g><path d="M 7.421875 -27.515625 L 7.421875 -17.21875 L 18.640625 -17.21875 L 18.640625 -13.90625 L 7.421875 -13.90625 L 7.421875 -3.3125 L 19.953125 -3.3125 L 19.953125 0 L 3.40625 0 L 3.40625 -30.828125 L 19.953125 -30.828125 L 19.953125 -27.515625 Z M 7.421875 -27.515625 "/></g></g></g><g fill="#000000" fill-opacity="1"><g transform="translate(88.940347, 170.959292)"><g><path d="M 22.34375 -30.78125 L 22.34375 -27.515625 L 13.953125 -27.515625 L 13.953125 0 L 9.9375 0 L 9.9375 -27.515625 L 1.5 -27.515625 L 1.5 -30.78125 Z M 22.34375 -30.78125 "/></g></g></g><g fill="#000000" fill-opacity="1"><g transform="translate(110.39839, 170.959292)"><g/></g></g><g fill="#000000" fill-opacity="1"><g transform="translate(119.758476, 170.959292)"><g><path d="M 4.640625 -18.0625 C 7.640625 -18.625 9.140625 -20.171875 9.140625 -22.703125 C 9.140625 -23.816406 8.992188 -25.726562 8.703125 -28.4375 C 8.398438 -31.320312 8.25 -33.410156 8.25 -34.703125 C 8.25 -36.828125 8.84375 -38.445312 10.03125 -39.5625 C 11.226562 -40.675781 12.832031 -41.234375 14.84375 -41.234375 L 17.390625 -41.234375 L 17.390625 -37.75 L 15.59375 -37.75 C 14.4375 -37.75 13.578125 -37.488281 13.015625 -36.96875 C 12.460938 -36.457031 12.1875 -35.613281 12.1875 -34.4375 C 12.1875 -33.582031 12.242188 -32.53125 12.359375 -31.28125 C 12.484375 -30.03125 12.554688 -29.1875 12.578125 -28.75 C 12.878906 -25.914062 13.03125 -23.851562 13.03125 -22.5625 C 13.03125 -21 12.640625 -19.695312 11.859375 -18.65625 C 11.078125 -17.613281 9.875 -16.914062 8.25 -16.5625 L 8.25 -16.46875 C 9.875 -16.113281 11.078125 -15.40625 11.859375 -14.34375 C 12.640625 -13.289062 13.03125 -11.984375 13.03125 -10.421875 C 13.03125 -9.128906 12.878906 -7.066406 12.578125 -4.234375 C 12.554688 -3.796875 12.484375 -2.953125 12.359375 -1.703125 C 12.242188 -0.453125 12.1875 0.597656 12.1875 1.453125 C 12.1875 2.628906 12.460938 3.472656 13.015625 3.984375 C 13.578125 4.503906 14.4375 4.765625 15.59375 4.765625 L 17.390625 4.765625 L 17.390625 8.25 L 14.84375 8.25 C 12.832031 8.25 11.226562 7.691406 10.03125 6.578125 C 8.84375 5.460938 8.25 3.84375 8.25 1.71875 C 8.25 0.425781 8.398438 -1.660156 8.703125 -4.546875 C 8.992188 -7.253906 9.140625 -9.164062 9.140625 -10.28125 C 9.140625 -12.8125 7.640625 -14.359375 4.640625 -14.921875 Z M 4.640625 -18.0625 "/></g></g></g><g fill="#000000" fill-opacity="1"><g transform="translate(137.728441, 170.959292)"><g/></g></g><g fill="#000000" fill-opacity="1"><g transform="translate(147.088532, 170.959292)"><g><path d="M 1.90625 -15.40625 C 1.90625 -18.414062 2.582031 -21.117188 3.9375 -23.515625 C 5.289062 -25.910156 7.132812 -27.785156 9.46875 -29.140625 C 11.8125 -30.492188 14.410156 -31.171875 17.265625 -31.171875 C 20.617188 -31.171875 23.546875 -30.359375 26.046875 -28.734375 C 28.554688 -27.117188 30.382812 -24.828125 31.53125 -21.859375 L 26.71875 -21.859375 C 25.863281 -23.710938 24.632812 -25.140625 23.03125 -26.140625 C 21.425781 -27.140625 19.503906 -27.640625 17.265625 -27.640625 C 15.117188 -27.640625 13.191406 -27.140625 11.484375 -26.140625 C 9.773438 -25.140625 8.429688 -23.71875 7.453125 -21.875 C 6.484375 -20.039062 6 -17.882812 6 -15.40625 C 6 -12.96875 6.484375 -10.828125 7.453125 -8.984375 C 8.429688 -7.140625 9.773438 -5.71875 11.484375 -4.71875 C 13.191406 -3.71875 15.117188 -3.21875 17.265625 -3.21875 C 19.503906 -3.21875 21.425781 -3.710938 23.03125 -4.703125 C 24.632812 -5.691406 25.863281 -7.113281 26.71875 -8.96875 L 31.53125 -8.96875 C 30.382812 -6.019531 28.554688 -3.742188 26.046875 -2.140625 C 23.546875 -0.535156 20.617188 0.265625 17.265625 0.265625 C 14.410156 0.265625 11.8125 -0.398438 9.46875 -1.734375 C 7.132812 -3.078125 5.289062 -4.941406 3.9375 -7.328125 C 2.582031 -9.710938 1.90625 -12.40625 1.90625 -15.40625 Z M 1.90625 -15.40625 "/></g></g></g><g fill="#000000" fill-opacity="1"><g transform="translate(178.745974, 170.959292)"><g><path d="M 17.359375 0.3125 C 14.492188 0.3125 11.882812 -0.351562 9.53125 -1.6875 C 7.175781 -3.03125 5.316406 -4.898438 3.953125 -7.296875 C 2.585938 -9.703125 1.90625 -12.40625 1.90625 -15.40625 C 1.90625 -18.414062 2.585938 -21.117188 3.953125 -23.515625 C 5.316406 -25.910156 7.175781 -27.773438 9.53125 -29.109375 C 11.882812 -30.453125 14.492188 -31.125 17.359375 -31.125 C 20.242188 -31.125 22.863281 -30.453125 25.21875 -29.109375 C 27.570312 -27.773438 29.425781 -25.914062 30.78125 -23.53125 C 32.132812 -21.144531 32.8125 -18.4375 32.8125 -15.40625 C 32.8125 -12.375 32.132812 -9.664062 30.78125 -7.28125 C 29.425781 -4.894531 27.570312 -3.03125 25.21875 -1.6875 C 22.863281 -0.351562 20.242188 0.3125 17.359375 0.3125 Z M 17.359375 -3.171875 C 19.503906 -3.171875 21.4375 -3.671875 23.15625 -4.671875 C 24.882812 -5.679688 26.238281 -7.113281 27.21875 -8.96875 C 28.207031 -10.820312 28.703125 -12.96875 28.703125 -15.40625 C 28.703125 -17.882812 28.207031 -20.039062 27.21875 -21.875 C 26.238281 -23.71875 24.894531 -25.140625 23.1875 -26.140625 C 21.476562 -27.140625 19.535156 -27.640625 17.359375 -27.640625 C 15.171875 -27.640625 13.222656 -27.140625 11.515625 -26.140625 C 9.816406 -25.140625 8.472656 -23.71875 7.484375 -21.875 C 6.492188 -20.039062 6 -17.882812 6 -15.40625 C 6 -12.96875 6.492188 -10.820312 7.484375 -8.96875 C 8.472656 -7.113281 9.828125 -5.679688 11.546875 -4.671875 C 13.265625 -3.671875 15.203125 -3.171875 17.359375 -3.171875 Z M 17.359375 -3.171875 "/></g></g></g><g fill="#000000" fill-opacity="1"><g transform="translate(211.021547, 170.959292)"><g><path d="M 12.984375 -30.78125 C 16.335938 -30.78125 19.242188 -30.15625 21.703125 -28.90625 C 24.160156 -27.65625 26.039062 -25.863281 27.34375 -23.53125 C 28.65625 -21.207031 29.3125 -18.472656 29.3125 -15.328125 C 29.3125 -12.171875 28.65625 -9.4375 27.34375 -7.125 C 26.039062 -4.820312 24.160156 -3.054688 21.703125 -1.828125 C 19.242188 -0.609375 16.335938 0 12.984375 0 L 3.40625 0 L 3.40625 -30.78125 Z M 12.984375 -3.3125 C 16.953125 -3.3125 19.984375 -4.363281 22.078125 -6.46875 C 24.171875 -8.570312 25.21875 -11.523438 25.21875 -15.328125 C 25.21875 -19.148438 24.164062 -22.132812 22.0625 -24.28125 C 19.957031 -26.4375 16.929688 -27.515625 12.984375 -27.515625 L 7.421875 -27.515625 L 7.421875 -3.3125 Z M 12.984375 -3.3125 "/></g></g></g><g fill="#000000" fill-opacity="1"><g transform="translate(239.809038, 170.959292)"><g><path d="M 7.421875 -27.515625 L 7.421875 -17.21875 L 18.640625 -17.21875 L 18.640625 -13.90625 L 7.421875 -13.90625 L 7.421875 -3.3125 L 19.953125 -3.3125 L 19.953125 0 L 3.40625 0 L 3.40625 -30.828125 L 19.953125 -30.828125 L 19.953125 -27.515625 Z M 7.421875 -27.515625 "/></g></g></g><g fill="#000000" fill-opacity="1"><g transform="translate(260.030803, 170.959292)"><g><path d="M 19.609375 0 L 12.28125 -12.578125 L 7.421875 -12.578125 L 7.421875 0 L 3.40625 0 L 3.40625 -30.78125 L 13.328125 -30.78125 C 15.660156 -30.78125 17.628906 -30.378906 19.234375 -29.578125 C 20.835938 -28.785156 22.035156 -27.710938 22.828125 -26.359375 C 23.617188 -25.003906 24.015625 -23.457031 24.015625 -21.71875 C 24.015625 -19.601562 23.40625 -17.734375 22.1875 -16.109375 C 20.96875 -14.492188 19.132812 -13.421875 16.6875 -12.890625 L 24.421875 0 Z M 7.421875 -15.8125 L 13.328125 -15.8125 C 15.515625 -15.8125 17.148438 -16.347656 18.234375 -17.421875 C 19.328125 -18.492188 19.875 -19.925781 19.875 -21.71875 C 19.875 -23.550781 19.332031 -24.96875 18.25 -25.96875 C 17.175781 -26.96875 15.535156 -27.46875 13.328125 -27.46875 L 7.421875 -27.46875 Z M 7.421875 -15.8125 "/></g></g></g><g fill="#000000" fill-opacity="1"><g transform="translate(284.447122, 170.959292)"><g><path d="M 13.15625 0.3125 C 11.125 0.3125 9.304688 -0.046875 7.703125 -0.765625 C 6.097656 -1.492188 4.835938 -2.5 3.921875 -3.78125 C 3.015625 -5.0625 2.546875 -6.539062 2.515625 -8.21875 L 6.796875 -8.21875 C 6.941406 -6.769531 7.535156 -5.550781 8.578125 -4.5625 C 9.628906 -3.582031 11.15625 -3.09375 13.15625 -3.09375 C 15.070312 -3.09375 16.582031 -3.570312 17.6875 -4.53125 C 18.789062 -5.488281 19.34375 -6.71875 19.34375 -8.21875 C 19.34375 -9.394531 19.015625 -10.347656 18.359375 -11.078125 C 17.710938 -11.816406 16.90625 -12.375 15.9375 -12.75 C 14.96875 -13.132812 13.660156 -13.550781 12.015625 -14 C 9.984375 -14.53125 8.351562 -15.054688 7.125 -15.578125 C 5.90625 -16.109375 4.859375 -16.941406 3.984375 -18.078125 C 3.117188 -19.210938 2.6875 -20.738281 2.6875 -22.65625 C 2.6875 -24.332031 3.113281 -25.816406 3.96875 -27.109375 C 4.820312 -28.410156 6.019531 -29.410156 7.5625 -30.109375 C 9.113281 -30.816406 10.890625 -31.171875 12.890625 -31.171875 C 15.773438 -31.171875 18.132812 -30.445312 19.96875 -29 C 21.8125 -27.5625 22.851562 -25.648438 23.09375 -23.265625 L 18.671875 -23.265625 C 18.523438 -24.441406 17.90625 -25.476562 16.8125 -26.375 C 15.726562 -27.28125 14.289062 -27.734375 12.5 -27.734375 C 10.820312 -27.734375 9.453125 -27.296875 8.390625 -26.421875 C 7.328125 -25.554688 6.796875 -24.34375 6.796875 -22.78125 C 6.796875 -21.664062 7.113281 -20.753906 7.75 -20.046875 C 8.382812 -19.335938 9.164062 -18.800781 10.09375 -18.4375 C 11.019531 -18.070312 12.320312 -17.648438 14 -17.171875 C 16.03125 -16.617188 17.660156 -16.066406 18.890625 -15.515625 C 20.128906 -14.972656 21.191406 -14.132812 22.078125 -13 C 22.960938 -11.863281 23.40625 -10.328125 23.40625 -8.390625 C 23.40625 -6.890625 23.003906 -5.472656 22.203125 -4.140625 C 21.410156 -2.816406 20.234375 -1.742188 18.671875 -0.921875 C 17.117188 -0.0976562 15.28125 0.3125 13.15625 0.3125 Z M 13.15625 0.3125 "/></g></g></g><g fill="#000000" fill-opacity="1"><g transform="translate(307.936224, 170.959292)"><g/></g></g><g fill="#000000" fill-opacity="1"><g transform="translate(317.296314, 170.959292)"><g><path d="M 15.765625 -14.921875 C 12.765625 -14.359375 11.265625 -12.8125 11.265625 -10.28125 C 11.265625 -9.164062 11.410156 -7.253906 11.703125 -4.546875 C 11.992188 -1.660156 12.140625 0.425781 12.140625 1.71875 C 12.140625 3.84375 11.539062 5.460938 10.34375 6.578125 C 9.15625 7.691406 7.5625 8.25 5.5625 8.25 L 3 8.25 L 3 4.765625 L 4.8125 4.765625 C 5.957031 4.765625 6.8125 4.503906 7.375 3.984375 C 7.9375 3.472656 8.21875 2.628906 8.21875 1.453125 C 8.21875 0.597656 8.15625 -0.453125 8.03125 -1.703125 C 7.914062 -2.953125 7.84375 -3.796875 7.8125 -4.234375 C 7.519531 -7.066406 7.375 -9.128906 7.375 -10.421875 C 7.375 -11.984375 7.765625 -13.289062 8.546875 -14.34375 C 9.328125 -15.40625 10.523438 -16.113281 12.140625 -16.46875 L 12.140625 -16.5625 C 10.523438 -16.914062 9.328125 -17.613281 8.546875 -18.65625 C 7.765625 -19.695312 7.375 -21 7.375 -22.5625 C 7.375 -23.851562 7.519531 -25.914062 7.8125 -28.75 C 7.84375 -29.1875 7.914062 -30.03125 8.03125 -31.28125 C 8.15625 -32.53125 8.21875 -33.582031 8.21875 -34.4375 C 8.21875 -35.613281 7.9375 -36.457031 7.375 -36.96875 C 6.8125 -37.488281 5.957031 -37.75 4.8125 -37.75 L 3 -37.75 L 3 -41.234375 L 5.5625 -41.234375 C 7.5625 -41.234375 9.15625 -40.675781 10.34375 -39.5625 C 11.539062 -38.445312 12.140625 -36.828125 12.140625 -34.703125 C 12.140625 -33.410156 11.992188 -31.320312 11.703125 -28.4375 C 11.410156 -25.726562 11.265625 -23.816406 11.265625 -22.703125 C 11.265625 -20.171875 12.765625 -18.625 15.765625 -18.0625 Z M 15.765625 -14.921875 "/></g></g></g></svg>